<svg width="40" height="40" viewBox="0 0 40 40" fill="none" xmlns="http://www.w3.org/2000/svg">
<path fill-rule="evenodd" clip-rule="evenodd" d="M9.96327 12.5156V40H0.000750005V12.5156H9.96327ZM24.9811 12.4648V14.0844C26.4355 13.1457 28.1126 12.6 30.6558 12.6C38.9387 12.6 40 19.0305 40 24.6325V39.9993H29.9874V25.3985C29.9874 22.9429 29.1088 22.4774 27.4843 22.4774C25.9398 22.4774 24.9811 22.968 24.9811 25.3985V39.9993H14.9686V12.4648H24.9811ZM4.98126 0C7.72971 0 9.96252 2.23529 9.96252 4.98123C9.96252 7.72717 7.72971 9.96246 4.98124 9.96246C2.23533 9.96246 0 7.72717 0 4.98121C0 2.23531 2.23531 0 4.98126 0Z" fill="#F5F5F5"/>
</svg>
