<svg width="66" height="66" viewBox="0 0 66 66" fill="none" xmlns="http://www.w3.org/2000/svg">
<mask id="mask0_29_1267" style="mask-type:alpha" maskUnits="userSpaceOnUse" x="0" y="0" width="66" height="66">
<rect width="66" height="66" fill="#ffffffff"/>
</mask>
<g mask="url(#mask0_29_1267)">
<path d="M23.144 6.528C23.8693 6.528 24.616 6.61333 25.384 6.784C26.152 6.912 26.8347 7.21067 27.432 7.68C28.0293 8.14933 28.328 8.81067 28.328 9.664C28.328 10.0907 28.2427 10.5387 28.072 11.008C27.944 11.4773 27.752 11.8187 27.496 12.032C27.1547 12.3733 26.7493 12.6293 26.28 12.8C25.8107 12.928 25.3627 13.0347 24.936 13.12C24.5093 13.1627 24.1467 13.184 23.848 13.184C23.5493 13.184 23.3787 13.184 23.336 13.184L20.456 13.184C19.816 13.184 19.304 13.2907 18.92 13.504C18.5787 13.7173 18.3227 14.016 18.152 14.4C17.9813 14.784 17.8747 15.232 17.832 15.744C17.832 16.256 17.832 16.7893 17.832 17.344L17.832 21.952C17.832 22.9333 17.768 23.7013 17.64 24.256C17.5547 24.8107 17.3627 25.344 17.064 25.856C16.808 26.368 16.4453 26.9227 15.976 27.52C15.5493 28.1173 14.9947 28.928 14.312 29.952C13.8427 30.6773 13.5013 31.2533 13.288 31.68C13.1173 32.1067 13.0533 32.4907 13.096 32.832C13.1387 33.1733 13.288 33.536 13.544 33.92C13.8 34.2613 14.12 34.7093 14.504 35.264C15.1013 36.1173 15.6133 36.7787 16.04 37.248C16.4667 37.7173 16.808 38.1867 17.064 38.656C17.3627 39.1253 17.5547 39.7227 17.64 40.448C17.768 41.1307 17.832 42.112 17.832 43.392L17.768 49.216C17.7253 52.16 18.5573 53.632 20.264 53.632L23.016 53.632C23.7413 53.632 24.4667 53.7173 25.192 53.888C25.96 54.016 26.6427 54.3147 27.24 54.784C27.8373 55.2533 28.136 55.9147 28.136 56.768C28.136 57.1947 28.0507 57.6427 27.88 58.112C27.752 58.5813 27.56 58.9227 27.304 59.136C26.9627 59.4773 26.4507 59.712 25.768 59.84C25.128 60.0107 24.4667 60.1173 23.784 60.16C23.144 60.2453 22.568 60.288 22.056 60.288C21.544 60.288 21.2667 60.288 21.224 60.288L16.808 59.904C15.784 59.904 14.8453 59.648 13.992 59.136C13.1387 58.624 12.4133 57.92 11.816 57.024C11.2613 56.128 10.8133 55.0827 10.472 53.888C10.1733 52.6507 10.024 51.3493 10.024 49.984L10.024 44.544C10.024 43.8613 10.0027 43.2853 9.96 42.816C9.96 42.3467 9.91733 41.8987 9.832 41.472C9.74666 41.0453 9.59733 40.5973 9.384 40.128C9.21333 39.6587 8.95733 39.0827 8.616 38.4L6.504 35.648C5.864 34.5387 5.58666 33.5787 5.672 32.768C5.75733 31.9147 6.01333 30.9973 6.44 30.016L8.68 27.008C9.02133 26.368 9.27733 25.856 9.448 25.472C9.66133 25.0453 9.81067 24.64 9.896 24.256C9.98133 23.872 10.024 23.488 10.024 23.104C10.0667 22.72 10.088 22.2507 10.088 21.696L10.024 15.36C10.024 14.0373 10.216 12.8427 10.6 11.776C10.984 10.6667 11.5173 9.728 12.2 8.96C12.8827 8.192 13.6933 7.59467 14.632 7.168C15.5707 6.74133 16.5733 6.528 17.64 6.528L23.144 6.528ZM34.578 11.648C34.578 10.8373 34.77 10.1333 35.154 9.536C35.538 8.93867 36.0287 8.49067 36.626 8.192C37.2233 7.85067 37.8633 7.68 38.546 7.68C39.2713 7.63733 39.9327 7.76533 40.53 8.064C41.938 8.832 43.218 9.77067 44.37 10.88C45.5647 11.9467 46.7167 13.0347 47.826 14.144C49.618 15.7653 51.2393 17.408 52.69 19.072C54.1407 20.6933 55.4633 22.2507 56.658 23.744C59.7727 27.8827 61.33 31.04 61.33 33.216C61.33 36.0747 57.3193 41.92 49.298 50.752C48.8287 51.3067 48.3167 51.904 47.762 52.544C47.2073 53.184 46.6313 53.824 46.034 54.464C45.4367 55.0613 44.818 55.5947 44.178 56.064C43.538 56.576 42.8767 56.9813 42.194 57.28C40.8713 57.792 39.7193 57.856 38.738 57.472C37.7993 57.088 37.1167 56.4693 36.69 55.616C36.2633 54.7627 36.1567 53.7813 36.37 52.672C36.5833 51.52 37.202 50.432 38.226 49.408C38.994 48.5973 39.7833 47.7867 40.594 46.976C41.4473 46.1653 42.2793 45.3333 43.09 44.48C44.4553 43.1573 45.7353 41.8133 46.93 40.448C48.1247 39.0827 49.2553 37.6533 50.322 36.16C50.8767 35.3493 51.1753 34.56 51.218 33.792C51.2607 33.024 51.1327 32.2987 50.834 31.616C50.5353 30.9333 50.13 30.272 49.618 29.632C49.106 28.992 48.594 28.3733 48.082 27.776C46.5887 25.9413 45.0313 24.192 43.41 22.528C41.8313 20.864 40.146 19.2853 38.354 17.792C37.6287 17.0667 37.0527 16.512 36.626 16.128C36.1993 15.7013 35.9007 15.36 35.73 15.104C35.3033 14.6347 35.0047 14.1013 34.834 13.504C34.6633 12.9067 34.578 12.288 34.578 11.648Z" fill="white"/>
<path d="M29.66 26.14C29.66 26.34 29.6333 26.5333 29.58 26.72C29.5267 26.9067 29.4333 27.0733 29.3 27.22C29.2467 27.3 29.1533 27.4067 29.02 27.54C28.8867 27.66 28.7067 27.8333 28.48 28.06C27.92 28.5267 27.3867 29.02 26.88 29.54C26.3867 30.06 25.9067 30.6067 25.44 31.18C25.28 31.3667 25.12 31.56 24.96 31.76C24.8 31.96 24.6733 32.1667 24.58 32.38C24.4867 32.5933 24.44 32.82 24.44 33.06C24.4533 33.3 24.5533 33.5467 24.74 33.8C25.0733 34.2667 25.4267 34.7133 25.8 35.14C26.1733 35.5667 26.5733 35.9867 27 36.4C27.2533 36.6667 27.5067 36.9267 27.76 37.18C28.0267 37.4333 28.28 37.6867 28.52 37.94C28.84 38.26 29.0333 38.6 29.1 38.96C29.1667 39.3067 29.1333 39.6133 29 39.88C28.8667 40.1467 28.6467 40.34 28.34 40.46C28.0467 40.58 27.6933 40.56 27.28 40.4C27.0667 40.3067 26.86 40.18 26.66 40.02C26.46 39.8733 26.2667 39.7067 26.08 39.52C25.8933 39.32 25.7133 39.12 25.54 38.92C25.3667 38.72 25.2067 38.5333 25.06 38.36C22.5533 35.6 21.3 33.7733 21.3 32.88C21.3 32.2 21.7867 31.2133 22.76 29.92C23.1333 29.4533 23.5467 28.9667 24 28.46C24.4533 27.94 24.96 27.4267 25.52 26.92C25.8667 26.5733 26.22 26.2333 26.58 25.9C26.9533 25.5533 27.36 25.26 27.8 25.02C27.9867 24.9267 28.1867 24.8867 28.4 24.9C28.6267 24.9 28.8333 24.9533 29.02 25.06C29.2067 25.1533 29.36 25.2933 29.48 25.48C29.6 25.6667 29.66 25.8867 29.66 26.14ZM32.9575 40.3C32.7975 40.3 32.6442 40.2733 32.4975 40.22C32.3508 40.1667 32.2242 40.0933 32.1175 40C32.0108 39.9067 31.9308 39.7933 31.8775 39.66C31.8242 39.5267 31.8108 39.3733 31.8375 39.2C31.7575 38.96 31.7508 38.7467 31.8175 38.56C31.8842 38.36 31.9708 38.16 32.0775 37.96H32.0575C32.5242 36.92 32.9775 35.9 33.4175 34.9C33.8708 33.8867 34.3442 32.88 34.8375 31.88C35.2775 30.9467 35.6842 30.0667 36.0575 29.24C36.4308 28.4133 36.7975 27.6 37.1575 26.8C37.2242 26.6533 37.3042 26.5067 37.3975 26.36C37.4908 26.2133 37.5975 26.1 37.7175 26.02C37.8375 25.9267 37.9775 25.8667 38.1375 25.84C38.2975 25.8133 38.4908 25.8467 38.7175 25.94C39.0642 26.0867 39.3175 26.2933 39.4775 26.56C39.6508 26.8267 39.7042 27.1333 39.6375 27.48C39.4508 27.96 39.2975 28.3533 39.1775 28.66C39.0708 28.9533 38.9575 29.2267 38.8375 29.48C38.7308 29.7333 38.6108 29.9933 38.4775 30.26C38.3442 30.5267 38.1708 30.8733 37.9575 31.3C37.7575 31.7267 37.5042 32.2667 37.1975 32.92C36.9042 33.56 36.5308 34.3867 36.0775 35.4C35.8375 35.9467 35.5908 36.4667 35.3375 36.96C35.0975 37.4533 34.8575 37.9467 34.6175 38.44C34.5375 38.5867 34.4508 38.7667 34.3575 38.98C34.2642 39.18 34.1642 39.4 34.0575 39.64C33.9508 39.8667 33.7975 40.0333 33.5975 40.14C33.3975 40.2467 33.1842 40.3 32.9575 40.3Z" fill="white"/>
</g>
</svg>
