<svg width="40" height="40" viewBox="0 0 40 40" fill="none" xmlns="http://www.w3.org/2000/svg">
<path d="M20.0501 0.000145927C15.2934 -0.0182638 10.6865 1.70576 7.05811 4.86204C3.42975 8.01832 1.01817 12.3996 0.257264 17.2178C-0.503643 22.0359 0.436071 26.9745 2.90734 31.145C5.3786 35.3156 9.21919 38.4443 13.7381 39.9683C14.7368 40.1322 15.0564 39.4968 15.0564 38.9434V35.4795C9.52344 36.7093 8.34493 32.7945 8.34493 32.7945C7.97189 31.5215 7.16322 30.4297 6.06781 29.72C4.25011 28.4492 6.20763 28.4902 6.20763 28.4902C6.83464 28.5735 7.4352 28.801 7.96442 29.156C8.49364 29.5109 8.93782 29.984 9.26377 30.5399C9.81862 31.5522 10.7405 32.2989 11.829 32.6175C12.9175 32.936 14.0846 32.8008 15.0764 32.2411C15.1674 31.202 15.6131 30.2293 16.3348 29.4946C12.0602 29.0436 7.30624 27.2809 7.30624 19.4718C7.24846 17.4251 7.9642 15.4348 9.30372 13.9172C8.69556 12.1534 8.76701 10.2178 9.50346 8.50618C9.50346 8.50618 11.1813 7.95277 14.9965 10.5558C18.2676 9.65353 21.7128 9.65353 24.9839 10.5558C28.7991 7.91178 30.4769 8.50618 30.4769 8.50618C31.2134 10.2178 31.2848 12.1534 30.6767 13.9172C32.0162 15.4348 32.7319 17.4251 32.6742 19.4718C32.6742 27.3014 28.0001 29.0231 23.5457 29.5356C24.0254 30.0304 24.3966 30.6246 24.6343 31.2786C24.872 31.9326 24.9707 32.6311 24.924 33.3274V38.9434C24.924 39.4968 25.2436 40.1527 26.2623 39.9683C30.7729 38.447 34.608 35.3267 37.0798 31.1668C39.5516 27.007 40.4985 22.0797 39.7507 17.2685C39.0029 12.4572 36.6093 8.07659 32.9991 4.91211C29.3889 1.74762 24.7982 0.00622401 20.0501 0.000145927Z" fill="#F5F5F5"/>
</svg>
