<svg width="222" height="222" viewBox="0 0 222 222" fill="none" xmlns="http://www.w3.org/2000/svg">
<mask id="mask0_14_1689" style="mask-type:alpha" maskUnits="userSpaceOnUse" x="0" y="0" width="222" height="222">
<rect width="222" height="222" fill="#D9D9D9"/>
</mask>
<g mask="url(#mask0_14_1689)">
<path d="M77.848 22.5033C80.2878 22.5033 82.7993 22.7904 85.3826 23.3644C87.9658 23.795 90.2621 24.7996 92.2713 26.3783C94.2805 27.9569 95.2851 30.1814 95.2851 33.0517C95.2851 34.4869 94.9981 35.9938 94.424 37.5724C93.9935 39.1511 93.3477 40.2992 92.4866 41.0168C91.3384 42.1649 89.975 43.026 88.3964 43.6001C86.8177 44.0306 85.3108 44.3894 83.8757 44.6764C82.4405 44.82 81.2206 44.8917 80.216 44.8917C79.2114 44.8917 78.6373 44.8917 78.4938 44.8917L68.8066 44.8917C66.6538 44.8917 64.9316 45.2505 63.64 45.9681C62.4919 46.6857 61.6308 47.6903 61.0567 48.9819C60.4827 50.2735 60.1239 51.7804 59.9804 53.5026C59.9804 55.2248 59.9804 57.0187 59.9804 58.8844L59.9804 74.3841C59.9804 77.6849 59.7651 80.2682 59.3346 82.1339C59.0475 83.9996 58.4017 85.7935 57.3971 87.5157C56.536 89.2379 55.3161 91.1036 53.7375 93.1128C52.3023 95.122 50.4366 97.8488 48.1404 101.293C46.5617 103.733 45.4136 105.67 44.696 107.106C44.1219 108.541 43.9067 109.832 44.0502 110.98C44.1937 112.129 44.696 113.348 45.5571 114.64C46.4182 115.788 47.4946 117.295 48.7862 119.161C50.7954 122.031 52.5176 124.256 53.9527 125.834C55.3879 127.413 56.536 128.992 57.3971 130.57C58.4017 132.149 59.0475 134.158 59.3346 136.598C59.7651 138.894 59.9804 142.195 59.9804 146.5L59.7651 166.09C59.6216 175.993 62.4201 180.944 68.1607 180.944L77.4175 180.944C79.8572 180.944 82.297 181.231 84.7367 181.805C87.32 182.236 89.6163 183.24 91.6255 184.819C93.6347 186.398 94.6393 188.622 94.6393 191.492C94.6393 192.928 94.3523 194.435 93.7782 196.013C93.3476 197.592 92.7018 198.74 91.8407 199.458C90.6926 200.606 88.9704 201.395 86.6742 201.826C84.5215 202.4 82.297 202.758 80.0007 202.902C77.848 203.189 75.9106 203.332 74.1884 203.332C72.4662 203.332 71.5333 203.332 71.3898 203.332L56.536 202.041C53.0916 202.041 49.9343 201.18 47.064 199.458C44.1937 197.735 41.7539 195.367 39.7447 192.354C37.879 189.34 36.3721 185.824 35.224 181.805C34.2194 177.643 33.7171 173.266 33.7171 168.674L33.7171 150.375C33.7171 148.079 33.6453 146.142 33.5018 144.563C33.5018 142.984 33.3583 141.477 33.0713 140.042C32.7842 138.607 32.2819 137.1 31.5644 135.522C30.9903 133.943 30.1292 132.005 28.9811 129.709L21.8771 120.452C19.7244 116.721 18.7915 113.492 19.0786 110.765C19.3656 107.895 20.2267 104.809 21.6618 101.508L29.1964 91.3906C30.3445 89.2379 31.2056 87.5157 31.7796 86.2241C32.4972 84.7889 32.9995 83.4255 33.2866 82.1339C33.5736 80.8423 33.7171 79.5506 33.7171 78.259C33.8606 76.9674 33.9324 75.3887 33.9324 73.523L33.7171 52.211C33.7171 47.762 34.3629 43.7436 35.6546 40.1557C36.9462 36.4243 38.7401 33.267 41.0364 30.6837C43.3326 28.1004 46.0594 26.0912 49.2167 24.6561C52.3741 23.2209 55.7467 22.5033 59.3346 22.5033L77.848 22.5033ZM116.308 39.7252C116.308 36.9984 116.954 34.6304 118.245 32.6212C119.537 30.612 121.187 29.1051 123.197 28.1004C125.206 26.9523 127.359 26.3783 129.655 26.3783C132.095 26.2347 134.319 26.6653 136.328 27.6699C141.064 30.2532 145.37 33.4105 149.245 37.1419C153.263 40.7298 157.138 44.3894 160.869 48.1208C166.897 53.5744 172.351 59.0997 177.23 64.6968C182.11 70.1504 186.559 75.3887 190.577 80.4117C201.054 94.3327 206.292 104.953 206.292 112.272C206.292 121.888 192.801 141.549 165.821 171.257C164.242 173.123 162.52 175.132 160.654 177.284C158.788 179.437 156.851 181.59 154.842 183.743C152.832 185.752 150.751 187.546 148.599 189.124C146.446 190.847 144.222 192.21 141.925 193.215C137.476 194.937 133.601 195.152 130.301 193.86C127.143 192.569 124.847 190.488 123.412 187.618C121.977 184.747 121.618 181.446 122.335 177.715C123.053 173.84 125.134 170.18 128.578 166.736C131.162 164.009 133.817 161.283 136.543 158.556C139.414 155.829 142.212 153.03 144.939 150.16C149.532 145.711 153.837 141.19 157.855 136.598C161.874 132.005 165.677 127.198 169.265 122.175C171.131 119.448 172.135 116.793 172.279 114.21C172.422 111.626 171.992 109.187 170.987 106.89C169.983 104.594 168.619 102.37 166.897 100.217C165.175 98.0641 163.453 95.9831 161.73 93.9739C156.707 87.8028 151.469 81.9186 146.015 76.3215C140.705 70.7245 135.037 65.4144 129.009 60.3914C126.569 57.9516 124.632 56.0859 123.197 54.7943C121.761 53.3591 120.757 52.211 120.183 51.3499C118.748 49.7712 117.743 47.9773 117.169 45.9681C116.595 43.9589 116.308 41.8779 116.308 39.7252Z" fill="white"/>
<path d="M99.7655 86.0165C99.7655 86.6892 99.6758 87.3395 99.4964 87.9674C99.317 88.5953 99.003 89.1559 98.5546 89.6492C98.3752 89.9183 98.0612 90.2771 97.6127 90.7256C97.1643 91.1292 96.5588 91.7122 95.7964 92.4747C93.9127 94.0444 92.1188 95.7037 90.4146 97.4528C88.7552 99.2019 87.1406 101.041 85.5709 102.969C85.0327 103.597 84.4946 104.247 83.9564 104.92C83.4182 105.593 82.9921 106.288 82.6782 107.006C82.3643 107.723 82.2073 108.486 82.2073 109.293C82.2521 110.1 82.5885 110.93 83.2164 111.782C84.3376 113.352 85.5261 114.854 86.7818 116.289C88.0376 117.724 89.383 119.137 90.8182 120.527C91.6703 121.424 92.5224 122.299 93.3746 123.151C94.2715 124.003 95.1236 124.855 95.9309 125.707C97.0073 126.784 97.6576 127.927 97.8818 129.138C98.1061 130.304 97.9939 131.336 97.5455 132.233C97.097 133.13 96.357 133.78 95.3255 134.184C94.3388 134.587 93.1503 134.52 91.76 133.982C91.0424 133.668 90.3473 133.242 89.6746 132.704C89.0018 132.21 88.3515 131.65 87.7236 131.022C87.0958 130.349 86.4903 129.676 85.9073 129.004C85.3243 128.331 84.7861 127.703 84.2927 127.12C75.8612 117.836 71.6455 111.692 71.6455 108.687C71.6455 106.4 73.2824 103.081 76.5564 98.731C77.8121 97.1613 79.2024 95.5244 80.7273 93.8201C82.2521 92.071 83.9564 90.3443 85.84 88.6401C87.0061 87.474 88.1946 86.3304 89.4055 85.2092C90.6612 84.0431 92.0291 83.0565 93.5091 82.2492C94.137 81.9353 94.8097 81.8007 95.5273 81.8456C96.2897 81.8456 96.9849 82.025 97.6127 82.3837C98.2406 82.6977 98.7564 83.1686 99.16 83.7965C99.5636 84.4244 99.7655 85.1644 99.7655 86.0165ZM110.857 133.646C110.319 133.646 109.803 133.556 109.31 133.376C108.816 133.197 108.39 132.95 108.032 132.636C107.673 132.323 107.404 131.941 107.224 131.493C107.045 131.044 107 130.529 107.09 129.946C106.821 129.138 106.798 128.421 107.023 127.793C107.247 127.12 107.538 126.447 107.897 125.775H107.83C109.399 122.276 110.924 118.846 112.404 115.482C113.929 112.073 115.521 108.687 117.181 105.324C118.661 102.184 120.029 99.2244 121.284 96.4437C122.54 93.6631 123.773 90.9274 124.984 88.2365C125.209 87.7431 125.478 87.2498 125.792 86.7565C126.106 86.2631 126.464 85.8819 126.868 85.6128C127.272 85.2989 127.743 85.0971 128.281 85.0074C128.819 84.9177 129.469 85.0298 130.232 85.3437C131.398 85.8371 132.25 86.5322 132.788 87.4292C133.371 88.3262 133.55 89.3577 133.326 90.5237C132.698 92.1383 132.183 93.4613 131.779 94.4928C131.42 95.4795 131.039 96.3989 130.635 97.251C130.276 98.1031 129.873 98.9777 129.424 99.8747C128.976 100.772 128.393 101.938 127.675 103.373C127.003 104.808 126.15 106.624 125.119 108.822C124.132 110.975 122.876 113.755 121.352 117.164C120.544 119.003 119.715 120.752 118.863 122.411C118.055 124.07 117.248 125.73 116.441 127.389C116.172 127.883 115.88 128.488 115.566 129.206C115.252 129.878 114.916 130.618 114.557 131.426C114.198 132.188 113.683 132.749 113.01 133.107C112.337 133.466 111.619 133.646 110.857 133.646Z" fill="white"/>
</g>
</svg>