<svg width="40" height="40" viewBox="0 0 40 40" fill="none" xmlns="http://www.w3.org/2000/svg">
<path d="M40 10.8V35.0001C40 36.3261 39.5786 37.5979 38.8284 38.5356C38.0783 39.4733 37.0609 40.0001 36 40.0001H4C2.93913 40.0001 1.92172 39.4733 1.17157 38.5356C0.421427 37.5979 0 36.3261 0 35.0001V11.725L4 14.45L19.04 24.7001C19.3348 24.899 19.6649 25.0021 20 25.0001C20.3522 24.9955 20.6971 24.8747 21 24.6501L36 13.725L40 10.8Z" fill="white"/>
<path d="M40 5L36 7.95L20 19.625L4 8.75L0 6V5C0 3.67392 0.421427 2.40215 1.17157 1.46447C1.92172 0.526784 2.93913 0 4 0H36C37.0609 0 38.0783 0.526784 38.8284 1.46447C39.5786 2.40215 40 3.67392 40 5Z" fill="white"/>
</svg>
